<mxfile host="app.diagrams.net" agent="Mozilla/5.0 (Windows NT 10.0; Win64; x64) AppleWebKit/537.36 (KHTML, like Gecko) Chrome/129.0.0.0 Safari/537.36" version="24.7.17" pages="4">
  <diagram name="Page-1" id="rgEuZnFA3iBSJ9nEijC5">
    <mxGraphModel grid="0" page="0" gridSize="10" guides="1" tooltips="1" connect="1" arrows="1" fold="1" pageScale="1" pageWidth="827" pageHeight="1169" math="0" shadow="0">
      <root>
        <mxCell id="0" />
        <mxCell id="1" parent="0" />
        <mxCell id="9jRBgegNXmbb9Jfgsh9y-1" value=": Flight view" style="shape=umlLifeline;perimeter=lifelinePerimeter;whiteSpace=wrap;html=1;container=1;collapsible=0;recursiveResize=0;outlineConnect=0;fillColor=#f8cecc;strokeColor=#b85450;" vertex="1" parent="1">
          <mxGeometry x="190" y="40" width="100" height="520" as="geometry" />
        </mxCell>
        <mxCell id="9jRBgegNXmbb9Jfgsh9y-2" value="" style="html=1;points=[];perimeter=orthogonalPerimeter;fillColor=#dae8fc;strokeColor=#6c8ebf;" vertex="1" parent="9jRBgegNXmbb9Jfgsh9y-1">
          <mxGeometry x="45" y="80" width="10" height="20" as="geometry" />
        </mxCell>
        <mxCell id="9jRBgegNXmbb9Jfgsh9y-3" value="" style="html=1;points=[];perimeter=orthogonalPerimeter;fillColor=#dae8fc;strokeColor=#6c8ebf;" vertex="1" parent="9jRBgegNXmbb9Jfgsh9y-1">
          <mxGeometry x="45" y="120" width="10" height="50" as="geometry" />
        </mxCell>
        <mxCell id="9jRBgegNXmbb9Jfgsh9y-4" value="" style="html=1;points=[];perimeter=orthogonalPerimeter;fillColor=#dae8fc;strokeColor=#6c8ebf;" vertex="1" parent="9jRBgegNXmbb9Jfgsh9y-1">
          <mxGeometry x="45" y="211" width="10" height="30" as="geometry" />
        </mxCell>
        <mxCell id="9jRBgegNXmbb9Jfgsh9y-5" value=":Flight Docs server&amp;nbsp;" style="shape=umlLifeline;perimeter=lifelinePerimeter;whiteSpace=wrap;html=1;container=1;collapsible=0;recursiveResize=0;outlineConnect=0;fillColor=#ffe6cc;strokeColor=#d79b00;" vertex="1" parent="1">
          <mxGeometry x="510" y="40" width="100" height="520" as="geometry" />
        </mxCell>
        <mxCell id="9jRBgegNXmbb9Jfgsh9y-6" value="" style="html=1;points=[];perimeter=orthogonalPerimeter;fillColor=#dae8fc;strokeColor=#6c8ebf;" vertex="1" parent="9jRBgegNXmbb9Jfgsh9y-5">
          <mxGeometry x="45" y="130" width="10" height="30" as="geometry" />
        </mxCell>
        <mxCell id="9jRBgegNXmbb9Jfgsh9y-7" value="" style="html=1;points=[];perimeter=orthogonalPerimeter;fillColor=#dae8fc;strokeColor=#6c8ebf;" vertex="1" parent="9jRBgegNXmbb9Jfgsh9y-5">
          <mxGeometry x="45" y="211" width="10" height="40" as="geometry" />
        </mxCell>
        <mxCell id="9jRBgegNXmbb9Jfgsh9y-8" value="" style="html=1;points=[];perimeter=orthogonalPerimeter;fillColor=#dae8fc;strokeColor=#6c8ebf;" vertex="1" parent="9jRBgegNXmbb9Jfgsh9y-5">
          <mxGeometry x="45" y="341" width="10" height="40" as="geometry" />
        </mxCell>
        <mxCell id="9jRBgegNXmbb9Jfgsh9y-9" value="" style="html=1;points=[];perimeter=orthogonalPerimeter;fillColor=#dae8fc;strokeColor=#6c8ebf;" vertex="1" parent="9jRBgegNXmbb9Jfgsh9y-5">
          <mxGeometry x="45" y="420" width="10" height="40" as="geometry" />
        </mxCell>
        <mxCell id="9jRBgegNXmbb9Jfgsh9y-10" value=":Front End" style="shape=umlLifeline;perimeter=lifelinePerimeter;whiteSpace=wrap;html=1;container=1;collapsible=0;recursiveResize=0;outlineConnect=0;fillColor=#f5f5f5;strokeColor=#666666;fontColor=#333333;" vertex="1" parent="1">
          <mxGeometry x="350" y="40" width="100" height="520" as="geometry" />
        </mxCell>
        <mxCell id="9jRBgegNXmbb9Jfgsh9y-11" value="" style="html=1;points=[];perimeter=orthogonalPerimeter;fillColor=#dae8fc;strokeColor=#6c8ebf;" vertex="1" parent="9jRBgegNXmbb9Jfgsh9y-10">
          <mxGeometry x="45" y="241" width="10" height="40" as="geometry" />
        </mxCell>
        <mxCell id="9jRBgegNXmbb9Jfgsh9y-12" value="" style="html=1;points=[];perimeter=orthogonalPerimeter;fillColor=#dae8fc;strokeColor=#6c8ebf;" vertex="1" parent="9jRBgegNXmbb9Jfgsh9y-10">
          <mxGeometry x="45" y="321" width="10" height="40" as="geometry" />
        </mxCell>
        <mxCell id="9jRBgegNXmbb9Jfgsh9y-13" value="&lt;font style=&quot;font-size: 12px&quot;&gt;Login&lt;/font&gt;" style="html=1;verticalAlign=bottom;endArrow=block;entryX=0;entryY=0;exitX=0.97;exitY=0.021;exitDx=0;exitDy=0;exitPerimeter=0;" edge="1" parent="1" source="9jRBgegNXmbb9Jfgsh9y-29" target="9jRBgegNXmbb9Jfgsh9y-2">
          <mxGeometry x="-0.6122" relative="1" as="geometry">
            <mxPoint x="85.06" y="120.12" as="sourcePoint" />
            <mxPoint as="offset" />
          </mxGeometry>
        </mxCell>
        <mxCell id="9jRBgegNXmbb9Jfgsh9y-14" value="&lt;font style=&quot;font-size: 12px&quot;&gt;Choose flight&amp;nbsp;&lt;/font&gt;" style="html=1;verticalAlign=bottom;endArrow=block;entryX=0.2;entryY=0.024;entryDx=0;entryDy=0;entryPerimeter=0;exitX=0.947;exitY=0.111;exitDx=0;exitDy=0;exitPerimeter=0;" edge="1" parent="1" source="9jRBgegNXmbb9Jfgsh9y-29" target="9jRBgegNXmbb9Jfgsh9y-3">
          <mxGeometry x="-0.3624" relative="1" as="geometry">
            <mxPoint x="85.06" y="161.06000000000006" as="sourcePoint" />
            <mxPoint x="324.77" y="161" as="targetPoint" />
            <mxPoint as="offset" />
          </mxGeometry>
        </mxCell>
        <mxCell id="9jRBgegNXmbb9Jfgsh9y-15" value="&lt;font style=&quot;font-size: 12px&quot;&gt;Get information&lt;/font&gt;" style="html=1;verticalAlign=bottom;endArrow=block;entryX=-0.04;entryY=0.187;exitX=0.96;exitY=0.32;exitDx=0;exitDy=0;exitPerimeter=0;entryDx=0;entryDy=0;entryPerimeter=0;" edge="1" parent="1" source="9jRBgegNXmbb9Jfgsh9y-3" target="9jRBgegNXmbb9Jfgsh9y-6">
          <mxGeometry x="-0.5781" relative="1" as="geometry">
            <mxPoint x="335.0999999999999" y="176.1500000000001" as="sourcePoint" />
            <mxPoint x="745" y="176" as="targetPoint" />
            <mxPoint as="offset" />
          </mxGeometry>
        </mxCell>
        <mxCell id="9jRBgegNXmbb9Jfgsh9y-16" value="&lt;font style=&quot;font-size: 12px&quot;&gt;Choose upload&lt;/font&gt;" style="html=1;verticalAlign=bottom;endArrow=block;entryX=-0.026;entryY=0.104;entryDx=0;entryDy=0;entryPerimeter=0;exitX=0.947;exitY=0.313;exitDx=0;exitDy=0;exitPerimeter=0;" edge="1" parent="1" source="9jRBgegNXmbb9Jfgsh9y-29" target="9jRBgegNXmbb9Jfgsh9y-4">
          <mxGeometry x="-0.2239" relative="1" as="geometry">
            <mxPoint x="84.78000000000003" y="254.43999999999994" as="sourcePoint" />
            <mxPoint x="322.44000000000005" y="254.07999999999993" as="targetPoint" />
            <mxPoint as="offset" />
          </mxGeometry>
        </mxCell>
        <mxCell id="9jRBgegNXmbb9Jfgsh9y-17" value="&lt;font style=&quot;font-size: 12px&quot;&gt;Show form&lt;/font&gt;" style="html=1;verticalAlign=bottom;endArrow=open;dashed=1;endSize=8;entryX=1.016;entryY=0.437;entryDx=0;entryDy=0;entryPerimeter=0;" edge="1" parent="1" source="9jRBgegNXmbb9Jfgsh9y-11" target="9jRBgegNXmbb9Jfgsh9y-29">
          <mxGeometry x="-0.716" relative="1" as="geometry">
            <mxPoint x="85.06" y="311.02" as="targetPoint" />
            <mxPoint x="287.25" y="321" as="sourcePoint" />
            <Array as="points">
              <mxPoint x="390" y="311" />
            </Array>
            <mxPoint as="offset" />
          </mxGeometry>
        </mxCell>
        <mxCell id="9jRBgegNXmbb9Jfgsh9y-18" value="" style="html=1;verticalAlign=bottom;endArrow=open;dashed=1;endSize=8;entryX=0.993;entryY=0.219;entryDx=0;entryDy=0;entryPerimeter=0;" edge="1" parent="1" source="9jRBgegNXmbb9Jfgsh9y-1" target="9jRBgegNXmbb9Jfgsh9y-29">
          <mxGeometry relative="1" as="geometry">
            <mxPoint x="83.94" y="210.27999999999997" as="targetPoint" />
            <mxPoint x="285" y="200" as="sourcePoint" />
            <Array as="points">
              <mxPoint x="200" y="210" />
            </Array>
          </mxGeometry>
        </mxCell>
        <mxCell id="9jRBgegNXmbb9Jfgsh9y-19" value="&lt;font style=&quot;font-size: 12px&quot;&gt;Show flight list&lt;/font&gt;" style="edgeLabel;html=1;align=center;verticalAlign=middle;resizable=0;points=[];" connectable="0" vertex="1" parent="9jRBgegNXmbb9Jfgsh9y-18">
          <mxGeometry x="0.125" y="-1" relative="1" as="geometry">
            <mxPoint x="30.21" y="-9" as="offset" />
          </mxGeometry>
        </mxCell>
        <mxCell id="9jRBgegNXmbb9Jfgsh9y-20" style="rounded=0;orthogonalLoop=1;jettySize=auto;html=1;entryX=0.08;entryY=0.35;entryDx=0;entryDy=0;entryPerimeter=0;" edge="1" parent="1" source="9jRBgegNXmbb9Jfgsh9y-4" target="9jRBgegNXmbb9Jfgsh9y-7">
          <mxGeometry relative="1" as="geometry">
            <mxPoint x="332.75" y="265.4000000000001" as="sourcePoint" />
            <mxPoint x="744.6300000000001" y="265.4000000000001" as="targetPoint" />
          </mxGeometry>
        </mxCell>
        <mxCell id="9jRBgegNXmbb9Jfgsh9y-21" value="&lt;font style=&quot;font-size: 12px&quot;&gt;Get information&lt;/font&gt;" style="edgeLabel;html=1;align=center;verticalAlign=middle;resizable=0;points=[];" connectable="0" vertex="1" parent="9jRBgegNXmbb9Jfgsh9y-20">
          <mxGeometry x="0.1825" y="33" relative="1" as="geometry">
            <mxPoint x="-119.00000000000001" y="23" as="offset" />
          </mxGeometry>
        </mxCell>
        <mxCell id="9jRBgegNXmbb9Jfgsh9y-22" value="" style="html=1;verticalAlign=bottom;endArrow=open;dashed=1;endSize=8;entryX=0.994;entryY=0.794;entryDx=0;entryDy=0;entryPerimeter=0;" edge="1" parent="1" source="9jRBgegNXmbb9Jfgsh9y-5" target="9jRBgegNXmbb9Jfgsh9y-3">
          <mxGeometry relative="1" as="geometry">
            <mxPoint x="295" y="220" as="targetPoint" />
            <mxPoint x="495" y="220" as="sourcePoint" />
          </mxGeometry>
        </mxCell>
        <mxCell id="9jRBgegNXmbb9Jfgsh9y-23" value="" style="html=1;verticalAlign=bottom;endArrow=open;dashed=1;endSize=8;exitX=0.04;exitY=1;exitDx=0;exitDy=0;exitPerimeter=0;" edge="1" parent="1" source="9jRBgegNXmbb9Jfgsh9y-7" target="9jRBgegNXmbb9Jfgsh9y-11">
          <mxGeometry x="-0.1029" y="-10" relative="1" as="geometry">
            <mxPoint x="560" y="241" as="sourcePoint" />
            <mxPoint x="480" y="241" as="targetPoint" />
            <mxPoint as="offset" />
          </mxGeometry>
        </mxCell>
        <mxCell id="9jRBgegNXmbb9Jfgsh9y-24" value="&lt;font style=&quot;font-size: 12px&quot;&gt;Fill and click save&lt;/font&gt;" style="html=1;verticalAlign=bottom;endArrow=block;entryX=0;entryY=0;exitX=0.947;exitY=0.544;exitDx=0;exitDy=0;exitPerimeter=0;" edge="1" parent="1" source="9jRBgegNXmbb9Jfgsh9y-29" target="9jRBgegNXmbb9Jfgsh9y-12">
          <mxGeometry x="-0.6187" relative="1" as="geometry">
            <mxPoint x="85.33000000000004" y="360.70000000000005" as="sourcePoint" />
            <mxPoint as="offset" />
          </mxGeometry>
        </mxCell>
        <mxCell id="9jRBgegNXmbb9Jfgsh9y-25" value="" style="edgeStyle=none;rounded=0;orthogonalLoop=1;jettySize=auto;html=1;exitX=0.976;exitY=0.483;exitDx=0;exitDy=0;exitPerimeter=0;entryX=0.1;entryY=0;entryDx=0;entryDy=0;entryPerimeter=0;" edge="1" parent="1" source="9jRBgegNXmbb9Jfgsh9y-12" target="9jRBgegNXmbb9Jfgsh9y-8">
          <mxGeometry relative="1" as="geometry">
            <mxPoint x="515" y="381" as="sourcePoint" />
            <mxPoint x="725" y="381" as="targetPoint" />
          </mxGeometry>
        </mxCell>
        <mxCell id="9jRBgegNXmbb9Jfgsh9y-26" value="&lt;font style=&quot;font-size: 12px&quot;&gt;Save data&lt;/font&gt;" style="edgeLabel;html=1;align=center;verticalAlign=middle;resizable=0;points=[];" connectable="0" vertex="1" parent="9jRBgegNXmbb9Jfgsh9y-25">
          <mxGeometry x="-0.4667" y="-1" relative="1" as="geometry">
            <mxPoint x="4.669999999999998" y="-11" as="offset" />
          </mxGeometry>
        </mxCell>
        <mxCell id="9jRBgegNXmbb9Jfgsh9y-27" value="&lt;font style=&quot;font-size: 12px&quot;&gt;Choose flight&lt;/font&gt;" style="html=1;verticalAlign=bottom;endArrow=block;entryX=0;entryY=0;exitX=1.016;exitY=0.762;exitDx=0;exitDy=0;exitPerimeter=0;" edge="1" parent="1" source="9jRBgegNXmbb9Jfgsh9y-29" target="9jRBgegNXmbb9Jfgsh9y-9">
          <mxGeometry x="-0.7888" relative="1" as="geometry">
            <mxPoint x="84.78000000000003" y="460.5200000000001" as="sourcePoint" />
            <mxPoint as="offset" />
          </mxGeometry>
        </mxCell>
        <mxCell id="9jRBgegNXmbb9Jfgsh9y-28" value="&lt;font style=&quot;font-size: 12px&quot;&gt;Show documents&amp;nbsp;&lt;/font&gt;" style="html=1;verticalAlign=bottom;endArrow=open;dashed=1;endSize=8;exitX=0.1;exitY=0.95;exitDx=0;exitDy=0;exitPerimeter=0;entryX=0.993;entryY=0.843;entryDx=0;entryDy=0;entryPerimeter=0;" edge="1" parent="1" source="9jRBgegNXmbb9Jfgsh9y-9" target="9jRBgegNXmbb9Jfgsh9y-29">
          <mxGeometry x="-0.7198" relative="1" as="geometry">
            <mxPoint x="84.78000000000003" y="497.78" as="targetPoint" />
            <mxPoint x="555" y="535" as="sourcePoint" />
            <mxPoint as="offset" />
          </mxGeometry>
        </mxCell>
        <mxCell id="9jRBgegNXmbb9Jfgsh9y-29" value="" style="html=1;points=[];perimeter=orthogonalPerimeter;fillColor=#EA6B66;" vertex="1" parent="1">
          <mxGeometry x="75" y="110" width="10" height="460" as="geometry" />
        </mxCell>
        <mxCell id="9jRBgegNXmbb9Jfgsh9y-30" value="Users" style="shape=umlActor;verticalLabelPosition=bottom;verticalAlign=top;html=1;fillColor=#EA6B66;" vertex="1" parent="1">
          <mxGeometry x="67.5" y="20" width="25" height="50" as="geometry" />
        </mxCell>
        <mxCell id="9jRBgegNXmbb9Jfgsh9y-31" value="" style="html=1;verticalAlign=bottom;endArrow=open;dashed=1;endSize=8;exitX=0.029;exitY=0.854;exitDx=0;exitDy=0;exitPerimeter=0;entryX=0.984;entryY=0.663;entryDx=0;entryDy=0;entryPerimeter=0;" edge="1" parent="1" source="9jRBgegNXmbb9Jfgsh9y-8" target="9jRBgegNXmbb9Jfgsh9y-29">
          <mxGeometry relative="1" as="geometry">
            <mxPoint x="420" y="230" as="sourcePoint" />
            <mxPoint x="90" y="415" as="targetPoint" />
          </mxGeometry>
        </mxCell>
      </root>
    </mxGraphModel>
  </diagram>
  <diagram name="Overview" id="K6TT9yhlAaKY74hGJNvB">
    <mxGraphModel grid="1" page="1" gridSize="10" guides="1" tooltips="1" connect="1" arrows="1" fold="1" pageScale="1" pageWidth="827" pageHeight="1169" math="0" shadow="0">
      <root>
        <mxCell id="d3Dgjd-m5kYLjQusNp3F-0" />
        <mxCell id="d3Dgjd-m5kYLjQusNp3F-1" parent="d3Dgjd-m5kYLjQusNp3F-0" />
        <mxCell id="d3Dgjd-m5kYLjQusNp3F-6" value="2. Chọn 1 chuyến bay và&lt;br&gt;gửi yêu cầu tạo tài liệu" style="edgeStyle=orthogonalEdgeStyle;curved=0;rounded=1;sketch=0;orthogonalLoop=1;jettySize=auto;html=1;entryX=0;entryY=0.5;entryDx=0;entryDy=0;strokeColor=#E07A5F;fillColor=#F2CC8F;fontColor=#393C56;" parent="d3Dgjd-m5kYLjQusNp3F-1" source="d3Dgjd-m5kYLjQusNp3F-2" target="d3Dgjd-m5kYLjQusNp3F-3" edge="1">
          <mxGeometry relative="1" as="geometry" />
        </mxCell>
        <mxCell id="d3Dgjd-m5kYLjQusNp3F-19" value="12. Trả ID chuyến bay đã gửi&amp;nbsp;" style="edgeStyle=orthogonalEdgeStyle;curved=0;rounded=1;sketch=0;orthogonalLoop=1;jettySize=auto;html=1;entryX=0;entryY=0.75;entryDx=0;entryDy=0;strokeColor=#E07A5F;fillColor=#F2CC8F;fontColor=#393C56;exitX=0.25;exitY=1;exitDx=0;exitDy=0;" parent="d3Dgjd-m5kYLjQusNp3F-1" source="d3Dgjd-m5kYLjQusNp3F-2" target="d3Dgjd-m5kYLjQusNp3F-10" edge="1">
          <mxGeometry relative="1" as="geometry" />
        </mxCell>
        <mxCell id="d3Dgjd-m5kYLjQusNp3F-22" style="edgeStyle=orthogonalEdgeStyle;curved=0;rounded=1;sketch=0;orthogonalLoop=1;jettySize=auto;html=1;exitX=0.75;exitY=1;exitDx=0;exitDy=0;entryX=0;entryY=0;entryDx=0;entryDy=0;strokeColor=#E07A5F;fillColor=#F2CC8F;fontColor=#393C56;" parent="d3Dgjd-m5kYLjQusNp3F-1" source="d3Dgjd-m5kYLjQusNp3F-2" target="d3Dgjd-m5kYLjQusNp3F-10" edge="1">
          <mxGeometry relative="1" as="geometry" />
        </mxCell>
        <mxCell id="d3Dgjd-m5kYLjQusNp3F-23" value="8. Call API&amp;nbsp; để upload tài liệu tự dộng" style="edgeLabel;html=1;align=center;verticalAlign=middle;resizable=0;points=[];fontColor=#393C56;" parent="d3Dgjd-m5kYLjQusNp3F-22" vertex="1" connectable="0">
          <mxGeometry x="0.1163" y="-1" relative="1" as="geometry">
            <mxPoint as="offset" />
          </mxGeometry>
        </mxCell>
        <mxCell id="d3Dgjd-m5kYLjQusNp3F-2" value="Flight View" style="rounded=0;whiteSpace=wrap;html=1;sketch=0;strokeColor=#E07A5F;fillColor=#F2CC8F;fontColor=#393C56;" parent="d3Dgjd-m5kYLjQusNp3F-1" vertex="1">
          <mxGeometry x="250" y="130" width="120" height="60" as="geometry" />
        </mxCell>
        <mxCell id="d3Dgjd-m5kYLjQusNp3F-8" value="3. Mở form theo mẫu &lt;br&gt;của loại tài liệu đã yêu cầu" style="edgeStyle=orthogonalEdgeStyle;curved=0;rounded=1;sketch=0;orthogonalLoop=1;jettySize=auto;html=1;entryX=1;entryY=1;entryDx=0;entryDy=0;entryPerimeter=0;strokeColor=#E07A5F;fillColor=#F2CC8F;fontColor=#393C56;exitX=0.5;exitY=0;exitDx=0;exitDy=0;" parent="d3Dgjd-m5kYLjQusNp3F-1" source="d3Dgjd-m5kYLjQusNp3F-3" target="d3Dgjd-m5kYLjQusNp3F-7" edge="1">
          <mxGeometry relative="1" as="geometry">
            <Array as="points">
              <mxPoint x="610" y="70" />
            </Array>
          </mxGeometry>
        </mxCell>
        <mxCell id="d3Dgjd-m5kYLjQusNp3F-3" value="Flight Document" style="rounded=0;whiteSpace=wrap;html=1;sketch=0;strokeColor=#E07A5F;fillColor=#F2CC8F;fontColor=#393C56;" parent="d3Dgjd-m5kYLjQusNp3F-1" vertex="1">
          <mxGeometry x="550" y="130" width="120" height="60" as="geometry" />
        </mxCell>
        <mxCell id="d3Dgjd-m5kYLjQusNp3F-5" value="1. Truy cập" style="edgeStyle=orthogonalEdgeStyle;curved=0;rounded=1;sketch=0;orthogonalLoop=1;jettySize=auto;html=1;strokeColor=#E07A5F;fillColor=#F2CC8F;fontColor=#393C56;" parent="d3Dgjd-m5kYLjQusNp3F-1" source="d3Dgjd-m5kYLjQusNp3F-4" target="d3Dgjd-m5kYLjQusNp3F-2" edge="1">
          <mxGeometry relative="1" as="geometry" />
        </mxCell>
        <mxCell id="d3Dgjd-m5kYLjQusNp3F-9" value="4. Nhập submit dữ liệu&lt;br&gt;&amp;nbsp;cho các trường trên form&amp;nbsp;&amp;nbsp;" style="edgeStyle=orthogonalEdgeStyle;curved=0;rounded=1;sketch=0;orthogonalLoop=1;jettySize=auto;html=1;strokeColor=#E07A5F;fillColor=#F2CC8F;fontColor=#393C56;entryX=0;entryY=0;entryDx=0;entryDy=65;entryPerimeter=0;" parent="d3Dgjd-m5kYLjQusNp3F-1" source="d3Dgjd-m5kYLjQusNp3F-4" target="d3Dgjd-m5kYLjQusNp3F-7" edge="1">
          <mxGeometry relative="1" as="geometry">
            <mxPoint x="420" y="240" as="targetPoint" />
            <Array as="points">
              <mxPoint x="90" y="160" />
              <mxPoint x="90" y="35" />
            </Array>
          </mxGeometry>
        </mxCell>
        <mxCell id="d3Dgjd-m5kYLjQusNp3F-4" value="Back - Office" style="shape=umlActor;verticalLabelPosition=bottom;verticalAlign=top;html=1;outlineConnect=0;rounded=0;sketch=0;strokeColor=#E07A5F;fillColor=#F2CC8F;fontColor=#393C56;" parent="d3Dgjd-m5kYLjQusNp3F-1" vertex="1">
          <mxGeometry x="30" y="130" width="30" height="60" as="geometry" />
        </mxCell>
        <mxCell id="d3Dgjd-m5kYLjQusNp3F-11" value="5. Yêu cầu tạo và lưu tài liệu" style="edgeStyle=orthogonalEdgeStyle;curved=0;rounded=1;sketch=0;orthogonalLoop=1;jettySize=auto;html=1;exitX=1;exitY=0.5;exitDx=0;exitDy=0;exitPerimeter=0;entryX=0.25;entryY=0;entryDx=0;entryDy=0;strokeColor=#E07A5F;fillColor=#F2CC8F;fontColor=#393C56;" parent="d3Dgjd-m5kYLjQusNp3F-1" source="d3Dgjd-m5kYLjQusNp3F-7" target="d3Dgjd-m5kYLjQusNp3F-10" edge="1">
          <mxGeometry x="-0.2185" relative="1" as="geometry">
            <Array as="points">
              <mxPoint x="730" y="20" />
            </Array>
            <mxPoint as="offset" />
          </mxGeometry>
        </mxCell>
        <mxCell id="d3Dgjd-m5kYLjQusNp3F-13" value="7. Trả kết quả cho Flight View" style="edgeStyle=orthogonalEdgeStyle;curved=0;rounded=1;sketch=0;orthogonalLoop=1;jettySize=auto;html=1;exitX=0.5;exitY=1;exitDx=0;exitDy=0;exitPerimeter=0;entryX=0.5;entryY=0;entryDx=0;entryDy=0;strokeColor=#E07A5F;fillColor=#F2CC8F;fontColor=#393C56;" parent="d3Dgjd-m5kYLjQusNp3F-1" source="d3Dgjd-m5kYLjQusNp3F-7" target="d3Dgjd-m5kYLjQusNp3F-2" edge="1">
          <mxGeometry relative="1" as="geometry">
            <Array as="points">
              <mxPoint x="454" y="90" />
              <mxPoint x="310" y="90" />
            </Array>
          </mxGeometry>
        </mxCell>
        <mxCell id="d3Dgjd-m5kYLjQusNp3F-7" value="Form nhập số liệu" style="shape=card;whiteSpace=wrap;html=1;rounded=0;sketch=0;strokeColor=#E07A5F;fillColor=#F2CC8F;fontColor=#393C56;" parent="d3Dgjd-m5kYLjQusNp3F-1" vertex="1">
          <mxGeometry x="414" y="-30" width="80" height="100" as="geometry" />
        </mxCell>
        <mxCell id="d3Dgjd-m5kYLjQusNp3F-12" value="6. Trả kết quả kèm theo link của tài liệu" style="edgeStyle=orthogonalEdgeStyle;curved=0;rounded=1;sketch=0;orthogonalLoop=1;jettySize=auto;html=1;entryX=0.5;entryY=0;entryDx=0;entryDy=0;entryPerimeter=0;strokeColor=#E07A5F;fillColor=#F2CC8F;fontColor=#393C56;exitX=0.75;exitY=0;exitDx=0;exitDy=0;" parent="d3Dgjd-m5kYLjQusNp3F-1" source="d3Dgjd-m5kYLjQusNp3F-10" target="d3Dgjd-m5kYLjQusNp3F-7" edge="1">
          <mxGeometry relative="1" as="geometry" />
        </mxCell>
        <mxCell id="d3Dgjd-m5kYLjQusNp3F-18" value="11. Xác nhận ID của chuyến bay tương ứng" style="edgeStyle=orthogonalEdgeStyle;curved=0;rounded=1;sketch=0;orthogonalLoop=1;jettySize=auto;html=1;entryX=0.5;entryY=1;entryDx=0;entryDy=0;strokeColor=#E07A5F;fillColor=#F2CC8F;fontColor=#393C56;exitX=0;exitY=0.5;exitDx=0;exitDy=0;" parent="d3Dgjd-m5kYLjQusNp3F-1" source="d3Dgjd-m5kYLjQusNp3F-10" target="d3Dgjd-m5kYLjQusNp3F-2" edge="1">
          <mxGeometry x="0.0337" relative="1" as="geometry">
            <mxPoint x="700" y="240" as="sourcePoint" />
            <Array as="points">
              <mxPoint x="640" y="290" />
              <mxPoint x="640" y="270" />
              <mxPoint x="310" y="270" />
            </Array>
            <mxPoint as="offset" />
          </mxGeometry>
        </mxCell>
        <mxCell id="d3Dgjd-m5kYLjQusNp3F-20" value="13. Truy vấn và&amp;nbsp; tải các tài liệu tương ứng với ID chuyến bay" style="edgeStyle=orthogonalEdgeStyle;curved=0;rounded=1;sketch=0;orthogonalLoop=1;jettySize=auto;html=1;exitX=0.25;exitY=1;exitDx=0;exitDy=0;entryX=0.75;entryY=0;entryDx=0;entryDy=0;strokeColor=#E07A5F;fillColor=#F2CC8F;fontColor=#393C56;" parent="d3Dgjd-m5kYLjQusNp3F-1" source="d3Dgjd-m5kYLjQusNp3F-10" target="d3Dgjd-m5kYLjQusNp3F-14" edge="1">
          <mxGeometry relative="1" as="geometry">
            <Array as="points">
              <mxPoint x="730" y="340" />
              <mxPoint x="330" y="340" />
            </Array>
          </mxGeometry>
        </mxCell>
        <mxCell id="d3Dgjd-m5kYLjQusNp3F-10" value="Flight Doc Server" style="rounded=0;whiteSpace=wrap;html=1;sketch=0;strokeColor=#E07A5F;fillColor=#F2CC8F;fontColor=#393C56;" parent="d3Dgjd-m5kYLjQusNp3F-1" vertex="1">
          <mxGeometry x="700" y="260" width="120" height="60" as="geometry" />
        </mxCell>
        <mxCell id="d3Dgjd-m5kYLjQusNp3F-17" value="10. Gửi yêu cầu tải các tài liệu liên quan đến chuyến bay" style="edgeStyle=orthogonalEdgeStyle;curved=0;rounded=1;sketch=0;orthogonalLoop=1;jettySize=auto;html=1;strokeColor=#E07A5F;fillColor=#F2CC8F;fontColor=#393C56;" parent="d3Dgjd-m5kYLjQusNp3F-1" source="d3Dgjd-m5kYLjQusNp3F-14" target="d3Dgjd-m5kYLjQusNp3F-10" edge="1">
          <mxGeometry relative="1" as="geometry" />
        </mxCell>
        <mxCell id="d3Dgjd-m5kYLjQusNp3F-14" value="Mobile App" style="rounded=0;whiteSpace=wrap;html=1;sketch=0;strokeColor=#E07A5F;fillColor=#F2CC8F;fontColor=#393C56;" parent="d3Dgjd-m5kYLjQusNp3F-1" vertex="1">
          <mxGeometry x="240" y="350" width="120" height="60" as="geometry" />
        </mxCell>
        <mxCell id="d3Dgjd-m5kYLjQusNp3F-16" value="9. Đăng nhập" style="edgeStyle=orthogonalEdgeStyle;curved=0;rounded=1;sketch=0;orthogonalLoop=1;jettySize=auto;html=1;entryX=0;entryY=0.5;entryDx=0;entryDy=0;strokeColor=#E07A5F;fillColor=#F2CC8F;fontColor=#393C56;" parent="d3Dgjd-m5kYLjQusNp3F-1" source="d3Dgjd-m5kYLjQusNp3F-15" target="d3Dgjd-m5kYLjQusNp3F-14" edge="1">
          <mxGeometry relative="1" as="geometry" />
        </mxCell>
        <mxCell id="d3Dgjd-m5kYLjQusNp3F-15" value="Pilot/Crew" style="shape=umlActor;verticalLabelPosition=bottom;verticalAlign=top;html=1;outlineConnect=0;rounded=0;sketch=0;strokeColor=#E07A5F;fillColor=#F2CC8F;fontColor=#393C56;" parent="d3Dgjd-m5kYLjQusNp3F-1" vertex="1">
          <mxGeometry x="30" y="350" width="30" height="60" as="geometry" />
        </mxCell>
      </root>
    </mxGraphModel>
  </diagram>
  <diagram name="Sequence" id="USYTsQRHecI9O_UfdQib">
    <mxGraphModel grid="1" page="1" gridSize="10" guides="1" tooltips="1" connect="1" arrows="1" fold="1" pageScale="1" pageWidth="827" pageHeight="1169" background="#F4F1DE" math="0" shadow="0">
      <root>
        <mxCell id="mwwSKLIChsYXCCITI0GL-0" />
        <mxCell id="mwwSKLIChsYXCCITI0GL-1" parent="mwwSKLIChsYXCCITI0GL-0" />
        <mxCell id="mwwSKLIChsYXCCITI0GL-7" value=":Flight View" style="shape=umlLifeline;perimeter=lifelinePerimeter;whiteSpace=wrap;html=1;container=1;collapsible=0;recursiveResize=0;outlineConnect=0;fillColor=#F2CC8F;strokeColor=#E07A5F;fontColor=#393C56;" parent="mwwSKLIChsYXCCITI0GL-1" vertex="1">
          <mxGeometry x="210" y="40" width="100" height="640" as="geometry" />
        </mxCell>
        <mxCell id="mwwSKLIChsYXCCITI0GL-11" value="" style="html=1;points=[];perimeter=orthogonalPerimeter;fillColor=#F2CC8F;strokeColor=#E07A5F;fontColor=#393C56;" parent="mwwSKLIChsYXCCITI0GL-7" vertex="1">
          <mxGeometry x="45" y="90" width="10" height="110" as="geometry" />
        </mxCell>
        <mxCell id="mwwSKLIChsYXCCITI0GL-30" value="" style="html=1;points=[];perimeter=orthogonalPerimeter;rounded=0;sketch=0;strokeColor=#E07A5F;fillColor=#F2CC8F;fontColor=#393C56;" parent="mwwSKLIChsYXCCITI0GL-7" vertex="1">
          <mxGeometry x="44" y="405" width="10" height="115" as="geometry" />
        </mxCell>
        <mxCell id="mwwSKLIChsYXCCITI0GL-8" value="Back-Office" style="shape=umlLifeline;participant=umlActor;perimeter=lifelinePerimeter;whiteSpace=wrap;html=1;container=1;collapsible=0;recursiveResize=0;verticalAlign=top;spacingTop=36;outlineConnect=0;fillColor=#F2CC8F;strokeColor=#E07A5F;fontColor=#393C56;" parent="mwwSKLIChsYXCCITI0GL-1" vertex="1">
          <mxGeometry x="30" y="40" width="20" height="530" as="geometry" />
        </mxCell>
        <mxCell id="mwwSKLIChsYXCCITI0GL-23" value="3. Nhập và gửi thông tin theo biểu mẫu" style="html=1;verticalAlign=bottom;endArrow=block;strokeColor=#E07A5F;fillColor=#F2CC8F;fontColor=#393C56;" parent="mwwSKLIChsYXCCITI0GL-8" target="mwwSKLIChsYXCCITI0GL-16" edge="1">
          <mxGeometry width="80" relative="1" as="geometry">
            <mxPoint x="10" y="320" as="sourcePoint" />
            <mxPoint x="90" y="320" as="targetPoint" />
          </mxGeometry>
        </mxCell>
        <mxCell id="mwwSKLIChsYXCCITI0GL-35" value="4. Nhấn để xem chi tiết tài liệu đã tạo" style="html=1;verticalAlign=bottom;endArrow=block;strokeColor=#E07A5F;fillColor=#F2CC8F;fontColor=#393C56;" parent="mwwSKLIChsYXCCITI0GL-8" target="mwwSKLIChsYXCCITI0GL-7" edge="1">
          <mxGeometry width="80" relative="1" as="geometry">
            <mxPoint x="10" y="480" as="sourcePoint" />
            <mxPoint x="90" y="480" as="targetPoint" />
            <Array as="points">
              <mxPoint x="110" y="480" />
            </Array>
          </mxGeometry>
        </mxCell>
        <mxCell id="mwwSKLIChsYXCCITI0GL-12" value="1. Đăng nhập" style="html=1;verticalAlign=bottom;endArrow=block;entryX=0;entryY=0;fillColor=#F2CC8F;strokeColor=#E07A5F;labelBackgroundColor=#F4F1DE;fontColor=#393C56;" parent="mwwSKLIChsYXCCITI0GL-1" source="mwwSKLIChsYXCCITI0GL-8" target="mwwSKLIChsYXCCITI0GL-11" edge="1">
          <mxGeometry relative="1" as="geometry">
            <mxPoint x="50" y="130" as="sourcePoint" />
          </mxGeometry>
        </mxCell>
        <mxCell id="mwwSKLIChsYXCCITI0GL-15" value="2. Chọn tải tài liệu" style="html=1;verticalAlign=bottom;endArrow=block;labelBackgroundColor=#F4F1DE;strokeColor=#E07A5F;fontColor=#393C56;" parent="mwwSKLIChsYXCCITI0GL-1" edge="1">
          <mxGeometry width="80" relative="1" as="geometry">
            <mxPoint x="39.5" y="186" as="sourcePoint" />
            <mxPoint x="259.5" y="186" as="targetPoint" />
          </mxGeometry>
        </mxCell>
        <mxCell id="mwwSKLIChsYXCCITI0GL-16" value=":Flight Document&lt;br&gt;Front-end" style="shape=umlLifeline;perimeter=lifelinePerimeter;whiteSpace=wrap;html=1;container=1;collapsible=0;recursiveResize=0;outlineConnect=0;fillColor=#F2CC8F;strokeColor=#E07A5F;fontColor=#393C56;" parent="mwwSKLIChsYXCCITI0GL-1" vertex="1">
          <mxGeometry x="470" y="40" width="100" height="670" as="geometry" />
        </mxCell>
        <mxCell id="mwwSKLIChsYXCCITI0GL-18" value="" style="html=1;points=[];perimeter=orthogonalPerimeter;fillColor=#F2CC8F;strokeColor=#E07A5F;fontColor=#393C56;" parent="mwwSKLIChsYXCCITI0GL-16" vertex="1">
          <mxGeometry x="45" y="190" width="10" height="480" as="geometry" />
        </mxCell>
        <mxCell id="mwwSKLIChsYXCCITI0GL-19" value="2.1 Gửi thông tin chuyến bay và loại tài liệu" style="html=1;verticalAlign=bottom;endArrow=block;entryX=0;entryY=0;labelBackgroundColor=#F4F1DE;strokeColor=#E07A5F;fontColor=#393C56;" parent="mwwSKLIChsYXCCITI0GL-1" source="mwwSKLIChsYXCCITI0GL-11" target="mwwSKLIChsYXCCITI0GL-18" edge="1">
          <mxGeometry relative="1" as="geometry">
            <mxPoint x="445" y="230" as="sourcePoint" />
          </mxGeometry>
        </mxCell>
        <mxCell id="mwwSKLIChsYXCCITI0GL-20" value="2.2 Hiển thị form nhập thông tin tài liệu" style="html=1;verticalAlign=bottom;endArrow=open;dashed=1;endSize=8;exitX=-0.1;exitY=0.294;labelBackgroundColor=#F4F1DE;strokeColor=#E07A5F;fontColor=#393C56;exitDx=0;exitDy=0;exitPerimeter=0;" parent="mwwSKLIChsYXCCITI0GL-1" edge="1">
          <mxGeometry relative="1" as="geometry">
            <mxPoint x="39.5" y="305.98" as="targetPoint" />
            <mxPoint x="514" y="305.98" as="sourcePoint" />
          </mxGeometry>
        </mxCell>
        <mxCell id="mwwSKLIChsYXCCITI0GL-24" value=":Flight Document&lt;br&gt;Server" style="shape=umlLifeline;perimeter=lifelinePerimeter;whiteSpace=wrap;html=1;container=1;collapsible=0;recursiveResize=0;outlineConnect=0;rounded=0;sketch=0;strokeColor=#E07A5F;fillColor=#F2CC8F;fontColor=#393C56;" parent="mwwSKLIChsYXCCITI0GL-1" vertex="1">
          <mxGeometry x="720" y="40" width="100" height="650" as="geometry" />
        </mxCell>
        <mxCell id="mwwSKLIChsYXCCITI0GL-27" value="" style="html=1;points=[];perimeter=orthogonalPerimeter;rounded=0;sketch=0;strokeColor=#E07A5F;fillColor=#F2CC8F;fontColor=#393C56;" parent="mwwSKLIChsYXCCITI0GL-24" vertex="1">
          <mxGeometry x="45" y="350" width="10" height="40" as="geometry" />
        </mxCell>
        <mxCell id="mwwSKLIChsYXCCITI0GL-37" value="" style="html=1;points=[];perimeter=orthogonalPerimeter;rounded=0;sketch=0;strokeColor=#E07A5F;fillColor=#F2CC8F;fontColor=#393C56;" parent="mwwSKLIChsYXCCITI0GL-24" vertex="1">
          <mxGeometry x="44" y="560" width="10" height="30" as="geometry" />
        </mxCell>
        <mxCell id="mwwSKLIChsYXCCITI0GL-28" value="3.1 Tạo và lưu thông tin" style="html=1;verticalAlign=bottom;endArrow=block;entryX=0;entryY=0;strokeColor=#E07A5F;fillColor=#F2CC8F;fontColor=#393C56;" parent="mwwSKLIChsYXCCITI0GL-1" source="mwwSKLIChsYXCCITI0GL-18" target="mwwSKLIChsYXCCITI0GL-27" edge="1">
          <mxGeometry relative="1" as="geometry">
            <mxPoint x="695" y="390" as="sourcePoint" />
          </mxGeometry>
        </mxCell>
        <mxCell id="mwwSKLIChsYXCCITI0GL-29" value="3.2&amp;nbsp; Trả kết quả" style="html=1;verticalAlign=bottom;endArrow=open;dashed=1;endSize=8;exitX=0;exitY=0.95;strokeColor=#E07A5F;fillColor=#F2CC8F;fontColor=#393C56;" parent="mwwSKLIChsYXCCITI0GL-1" source="mwwSKLIChsYXCCITI0GL-27" target="mwwSKLIChsYXCCITI0GL-16" edge="1">
          <mxGeometry relative="1" as="geometry">
            <mxPoint x="530" y="428" as="targetPoint" />
          </mxGeometry>
        </mxCell>
        <mxCell id="mwwSKLIChsYXCCITI0GL-31" value="3.3 Close form và gửi link tài liệu đã tạo" style="html=1;verticalAlign=bottom;endArrow=block;entryX=1;entryY=0;strokeColor=#E07A5F;fillColor=#F2CC8F;fontColor=#393C56;" parent="mwwSKLIChsYXCCITI0GL-1" source="mwwSKLIChsYXCCITI0GL-16" target="mwwSKLIChsYXCCITI0GL-30" edge="1">
          <mxGeometry relative="1" as="geometry">
            <mxPoint x="330" y="400" as="sourcePoint" />
          </mxGeometry>
        </mxCell>
        <mxCell id="mwwSKLIChsYXCCITI0GL-32" value="3.4 Hiển thị kết&amp;nbsp; quả cho người dùng" style="html=1;verticalAlign=bottom;endArrow=open;dashed=1;endSize=8;strokeColor=#E07A5F;fillColor=#F2CC8F;fontColor=#393C56;" parent="mwwSKLIChsYXCCITI0GL-1" edge="1">
          <mxGeometry relative="1" as="geometry">
            <mxPoint x="39.32352941176464" y="483" as="targetPoint" />
            <mxPoint x="250" y="483" as="sourcePoint" />
          </mxGeometry>
        </mxCell>
        <mxCell id="mwwSKLIChsYXCCITI0GL-36" value="4.1 Link đến&amp;nbsp; form chi tiết tài liệu" style="html=1;verticalAlign=bottom;endArrow=block;strokeColor=#E07A5F;fillColor=#F2CC8F;fontColor=#393C56;" parent="mwwSKLIChsYXCCITI0GL-1" source="mwwSKLIChsYXCCITI0GL-30" target="mwwSKLIChsYXCCITI0GL-16" edge="1">
          <mxGeometry width="80" relative="1" as="geometry">
            <mxPoint x="270" y="560" as="sourcePoint" />
            <mxPoint x="350" y="560" as="targetPoint" />
            <Array as="points">
              <mxPoint x="340" y="560" />
            </Array>
          </mxGeometry>
        </mxCell>
        <mxCell id="mwwSKLIChsYXCCITI0GL-38" value="4.2 Truy vấn thông tin tài liệu" style="html=1;verticalAlign=bottom;endArrow=block;entryX=0;entryY=0;strokeColor=#E07A5F;fillColor=#F2CC8F;fontColor=#393C56;" parent="mwwSKLIChsYXCCITI0GL-1" source="mwwSKLIChsYXCCITI0GL-16" target="mwwSKLIChsYXCCITI0GL-37" edge="1">
          <mxGeometry relative="1" as="geometry">
            <mxPoint x="694" y="550" as="sourcePoint" />
          </mxGeometry>
        </mxCell>
        <mxCell id="mwwSKLIChsYXCCITI0GL-39" value="4.3 Hiển thị kết quả chi tiết" style="html=1;verticalAlign=bottom;endArrow=open;dashed=1;endSize=8;exitX=0;exitY=0.95;strokeColor=#E07A5F;fillColor=#F2CC8F;fontColor=#393C56;" parent="mwwSKLIChsYXCCITI0GL-1" source="mwwSKLIChsYXCCITI0GL-37" target="mwwSKLIChsYXCCITI0GL-16" edge="1">
          <mxGeometry relative="1" as="geometry">
            <mxPoint x="694" y="626" as="targetPoint" />
          </mxGeometry>
        </mxCell>
      </root>
    </mxGraphModel>
  </diagram>
  <diagram id="T5pds7o-lfu-EhOOH4to" name="database">
    <mxGraphModel grid="0" page="0" gridSize="10" guides="1" tooltips="1" connect="1" arrows="1" fold="1" pageScale="1" pageWidth="827" pageHeight="1169" math="0" shadow="0">
      <root>
        <mxCell id="0" />
        <mxCell id="1" parent="0" />
        <mxCell id="oju-XrPHehOpIFjoWheK-142" style="edgeStyle=none;curved=1;rounded=0;orthogonalLoop=1;jettySize=auto;html=1;entryX=0.5;entryY=1;entryDx=0;entryDy=0;fontSize=12;startSize=8;endSize=8;startArrow=ERone;startFill=0;endArrow=ERoneToMany;endFill=0;" edge="1" parent="1" source="oju-XrPHehOpIFjoWheK-143" target="oju-XrPHehOpIFjoWheK-152">
          <mxGeometry relative="1" as="geometry">
            <mxPoint x="1497.5" y="4887" as="targetPoint" />
          </mxGeometry>
        </mxCell>
        <mxCell id="oju-XrPHehOpIFjoWheK-143" value="Permission" style="shape=table;startSize=30;container=1;collapsible=1;childLayout=tableLayout;fixedRows=1;rowLines=0;fontStyle=1;align=center;resizeLast=1;" vertex="1" parent="1">
          <mxGeometry x="1017" y="4932" width="250" height="100" as="geometry" />
        </mxCell>
        <mxCell id="oju-XrPHehOpIFjoWheK-144" value="" style="shape=partialRectangle;collapsible=0;dropTarget=0;pointerEvents=0;fillColor=none;points=[[0,0.5],[1,0.5]];portConstraint=eastwest;top=0;left=0;right=0;bottom=1;" vertex="1" parent="oju-XrPHehOpIFjoWheK-143">
          <mxGeometry y="30" width="250" height="30" as="geometry" />
        </mxCell>
        <mxCell id="oju-XrPHehOpIFjoWheK-145" value="PK" style="shape=partialRectangle;overflow=hidden;connectable=0;fillColor=none;top=0;left=0;bottom=0;right=0;fontStyle=1;" vertex="1" parent="oju-XrPHehOpIFjoWheK-144">
          <mxGeometry width="30" height="30" as="geometry">
            <mxRectangle width="30" height="30" as="alternateBounds" />
          </mxGeometry>
        </mxCell>
        <mxCell id="oju-XrPHehOpIFjoWheK-146" value="PermissionID int NOT NULL " style="shape=partialRectangle;overflow=hidden;connectable=0;fillColor=none;top=0;left=0;bottom=0;right=0;align=left;spacingLeft=6;fontStyle=5;" vertex="1" parent="oju-XrPHehOpIFjoWheK-144">
          <mxGeometry x="30" width="220" height="30" as="geometry">
            <mxRectangle width="220" height="30" as="alternateBounds" />
          </mxGeometry>
        </mxCell>
        <mxCell id="oju-XrPHehOpIFjoWheK-147" value="" style="shape=partialRectangle;collapsible=0;dropTarget=0;pointerEvents=0;fillColor=none;points=[[0,0.5],[1,0.5]];portConstraint=eastwest;top=0;left=0;right=0;bottom=0;" vertex="1" parent="oju-XrPHehOpIFjoWheK-143">
          <mxGeometry y="60" width="250" height="30" as="geometry" />
        </mxCell>
        <mxCell id="oju-XrPHehOpIFjoWheK-148" value="" style="shape=partialRectangle;overflow=hidden;connectable=0;fillColor=none;top=0;left=0;bottom=0;right=0;" vertex="1" parent="oju-XrPHehOpIFjoWheK-147">
          <mxGeometry width="30" height="30" as="geometry">
            <mxRectangle width="30" height="30" as="alternateBounds" />
          </mxGeometry>
        </mxCell>
        <mxCell id="oju-XrPHehOpIFjoWheK-149" value="Name nvarchar(50) " style="shape=partialRectangle;overflow=hidden;connectable=0;fillColor=none;top=0;left=0;bottom=0;right=0;align=left;spacingLeft=6;" vertex="1" parent="oju-XrPHehOpIFjoWheK-147">
          <mxGeometry x="30" width="220" height="30" as="geometry">
            <mxRectangle width="220" height="30" as="alternateBounds" />
          </mxGeometry>
        </mxCell>
        <mxCell id="oju-XrPHehOpIFjoWheK-150" style="edgeStyle=none;curved=1;rounded=0;orthogonalLoop=1;jettySize=auto;html=1;fontSize=12;startSize=8;endSize=8;startArrow=baseDash;startFill=0;endArrow=ERoneToMany;endFill=0;exitX=1;exitY=0.5;exitDx=0;exitDy=0;entryX=0;entryY=0.5;entryDx=0;entryDy=0;" edge="1" parent="1" source="oju-XrPHehOpIFjoWheK-156" target="oju-XrPHehOpIFjoWheK-172">
          <mxGeometry relative="1" as="geometry">
            <mxPoint x="1250" y="4797" as="sourcePoint" />
            <mxPoint x="1381" y="4675" as="targetPoint" />
          </mxGeometry>
        </mxCell>
        <mxCell id="oju-XrPHehOpIFjoWheK-152" value="Role" style="shape=table;startSize=30;container=1;collapsible=1;childLayout=tableLayout;fixedRows=1;rowLines=0;fontStyle=1;align=center;resizeLast=1;" vertex="1" parent="1">
          <mxGeometry x="1017" y="4597" width="250" height="190" as="geometry" />
        </mxCell>
        <mxCell id="oju-XrPHehOpIFjoWheK-153" value="" style="shape=partialRectangle;collapsible=0;dropTarget=0;pointerEvents=0;fillColor=none;points=[[0,0.5],[1,0.5]];portConstraint=eastwest;top=0;left=0;right=0;bottom=1;" vertex="1" parent="oju-XrPHehOpIFjoWheK-152">
          <mxGeometry y="30" width="250" height="30" as="geometry" />
        </mxCell>
        <mxCell id="oju-XrPHehOpIFjoWheK-154" value="PK" style="shape=partialRectangle;overflow=hidden;connectable=0;fillColor=none;top=0;left=0;bottom=0;right=0;fontStyle=1;" vertex="1" parent="oju-XrPHehOpIFjoWheK-153">
          <mxGeometry width="30" height="30" as="geometry">
            <mxRectangle width="30" height="30" as="alternateBounds" />
          </mxGeometry>
        </mxCell>
        <mxCell id="oju-XrPHehOpIFjoWheK-155" value="RoleID int NOT NULL " style="shape=partialRectangle;overflow=hidden;connectable=0;fillColor=none;top=0;left=0;bottom=0;right=0;align=left;spacingLeft=6;fontStyle=5;" vertex="1" parent="oju-XrPHehOpIFjoWheK-153">
          <mxGeometry x="30" width="220" height="30" as="geometry">
            <mxRectangle width="220" height="30" as="alternateBounds" />
          </mxGeometry>
        </mxCell>
        <mxCell id="oju-XrPHehOpIFjoWheK-156" value="" style="shape=partialRectangle;collapsible=0;dropTarget=0;pointerEvents=0;fillColor=none;points=[[0,0.5],[1,0.5]];portConstraint=eastwest;top=0;left=0;right=0;bottom=1;" vertex="1" parent="oju-XrPHehOpIFjoWheK-152">
          <mxGeometry y="60" width="250" height="30" as="geometry" />
        </mxCell>
        <mxCell id="oju-XrPHehOpIFjoWheK-157" value="FK" style="shape=partialRectangle;overflow=hidden;connectable=0;fillColor=none;top=0;left=0;bottom=0;right=0;fontStyle=1;" vertex="1" parent="oju-XrPHehOpIFjoWheK-156">
          <mxGeometry width="30" height="30" as="geometry">
            <mxRectangle width="30" height="30" as="alternateBounds" />
          </mxGeometry>
        </mxCell>
        <mxCell id="oju-XrPHehOpIFjoWheK-158" value="PermissionID int NOT NULL " style="shape=partialRectangle;overflow=hidden;connectable=0;fillColor=none;top=0;left=0;bottom=0;right=0;align=left;spacingLeft=6;fontStyle=5;" vertex="1" parent="oju-XrPHehOpIFjoWheK-156">
          <mxGeometry x="30" width="220" height="30" as="geometry">
            <mxRectangle width="220" height="30" as="alternateBounds" />
          </mxGeometry>
        </mxCell>
        <mxCell id="oju-XrPHehOpIFjoWheK-159" value="" style="shape=partialRectangle;collapsible=0;dropTarget=0;pointerEvents=0;fillColor=none;points=[[0,0.5],[1,0.5]];portConstraint=eastwest;top=0;left=0;right=0;bottom=0;" vertex="1" parent="oju-XrPHehOpIFjoWheK-152">
          <mxGeometry y="90" width="250" height="30" as="geometry" />
        </mxCell>
        <mxCell id="oju-XrPHehOpIFjoWheK-160" value="" style="shape=partialRectangle;overflow=hidden;connectable=0;fillColor=none;top=0;left=0;bottom=0;right=0;" vertex="1" parent="oju-XrPHehOpIFjoWheK-159">
          <mxGeometry width="30" height="30" as="geometry">
            <mxRectangle width="30" height="30" as="alternateBounds" />
          </mxGeometry>
        </mxCell>
        <mxCell id="oju-XrPHehOpIFjoWheK-161" value="Name nvarchar(50) " style="shape=partialRectangle;overflow=hidden;connectable=0;fillColor=none;top=0;left=0;bottom=0;right=0;align=left;spacingLeft=6;" vertex="1" parent="oju-XrPHehOpIFjoWheK-159">
          <mxGeometry x="30" width="220" height="30" as="geometry">
            <mxRectangle width="220" height="30" as="alternateBounds" />
          </mxGeometry>
        </mxCell>
        <mxCell id="oju-XrPHehOpIFjoWheK-162" style="shape=partialRectangle;collapsible=0;dropTarget=0;pointerEvents=0;fillColor=none;points=[[0,0.5],[1,0.5]];portConstraint=eastwest;top=0;left=0;right=0;bottom=0;" vertex="1" parent="oju-XrPHehOpIFjoWheK-152">
          <mxGeometry y="120" width="250" height="30" as="geometry" />
        </mxCell>
        <mxCell id="oju-XrPHehOpIFjoWheK-163" style="shape=partialRectangle;overflow=hidden;connectable=0;fillColor=none;top=0;left=0;bottom=0;right=0;" vertex="1" parent="oju-XrPHehOpIFjoWheK-162">
          <mxGeometry width="30" height="30" as="geometry">
            <mxRectangle width="30" height="30" as="alternateBounds" />
          </mxGeometry>
        </mxCell>
        <mxCell id="oju-XrPHehOpIFjoWheK-164" value="Note nvarchar(50)" style="shape=partialRectangle;overflow=hidden;connectable=0;fillColor=none;top=0;left=0;bottom=0;right=0;align=left;spacingLeft=6;" vertex="1" parent="oju-XrPHehOpIFjoWheK-162">
          <mxGeometry x="30" width="220" height="30" as="geometry">
            <mxRectangle width="220" height="30" as="alternateBounds" />
          </mxGeometry>
        </mxCell>
        <mxCell id="oju-XrPHehOpIFjoWheK-165" style="shape=partialRectangle;collapsible=0;dropTarget=0;pointerEvents=0;fillColor=none;points=[[0,0.5],[1,0.5]];portConstraint=eastwest;top=0;left=0;right=0;bottom=0;" vertex="1" parent="oju-XrPHehOpIFjoWheK-152">
          <mxGeometry y="150" width="250" height="30" as="geometry" />
        </mxCell>
        <mxCell id="oju-XrPHehOpIFjoWheK-166" style="shape=partialRectangle;overflow=hidden;connectable=0;fillColor=none;top=0;left=0;bottom=0;right=0;" vertex="1" parent="oju-XrPHehOpIFjoWheK-165">
          <mxGeometry width="30" height="30" as="geometry">
            <mxRectangle width="30" height="30" as="alternateBounds" />
          </mxGeometry>
        </mxCell>
        <mxCell id="oju-XrPHehOpIFjoWheK-167" value="CreateDate Datetime" style="shape=partialRectangle;overflow=hidden;connectable=0;fillColor=none;top=0;left=0;bottom=0;right=0;align=left;spacingLeft=6;" vertex="1" parent="oju-XrPHehOpIFjoWheK-165">
          <mxGeometry x="30" width="220" height="30" as="geometry">
            <mxRectangle width="220" height="30" as="alternateBounds" />
          </mxGeometry>
        </mxCell>
        <mxCell id="oju-XrPHehOpIFjoWheK-168" value="User" style="shape=table;startSize=30;container=1;collapsible=1;childLayout=tableLayout;fixedRows=1;rowLines=0;fontStyle=1;align=center;resizeLast=1;" vertex="1" parent="1">
          <mxGeometry x="1384" y="4597" width="250" height="250" as="geometry" />
        </mxCell>
        <mxCell id="oju-XrPHehOpIFjoWheK-169" value="" style="shape=partialRectangle;collapsible=0;dropTarget=0;pointerEvents=0;fillColor=none;points=[[0,0.5],[1,0.5]];portConstraint=eastwest;top=0;left=0;right=0;bottom=1;" vertex="1" parent="oju-XrPHehOpIFjoWheK-168">
          <mxGeometry y="30" width="250" height="30" as="geometry" />
        </mxCell>
        <mxCell id="oju-XrPHehOpIFjoWheK-170" value="PK" style="shape=partialRectangle;overflow=hidden;connectable=0;fillColor=none;top=0;left=0;bottom=0;right=0;fontStyle=1;" vertex="1" parent="oju-XrPHehOpIFjoWheK-169">
          <mxGeometry width="30" height="30" as="geometry">
            <mxRectangle width="30" height="30" as="alternateBounds" />
          </mxGeometry>
        </mxCell>
        <mxCell id="oju-XrPHehOpIFjoWheK-171" value="UserID int NOT NULL " style="shape=partialRectangle;overflow=hidden;connectable=0;fillColor=none;top=0;left=0;bottom=0;right=0;align=left;spacingLeft=6;fontStyle=5;" vertex="1" parent="oju-XrPHehOpIFjoWheK-169">
          <mxGeometry x="30" width="220" height="30" as="geometry">
            <mxRectangle width="220" height="30" as="alternateBounds" />
          </mxGeometry>
        </mxCell>
        <mxCell id="oju-XrPHehOpIFjoWheK-172" value="" style="shape=partialRectangle;collapsible=0;dropTarget=0;pointerEvents=0;fillColor=none;points=[[0,0.5],[1,0.5]];portConstraint=eastwest;top=0;left=0;right=0;bottom=1;" vertex="1" parent="oju-XrPHehOpIFjoWheK-168">
          <mxGeometry y="60" width="250" height="30" as="geometry" />
        </mxCell>
        <mxCell id="oju-XrPHehOpIFjoWheK-173" value="FK" style="shape=partialRectangle;overflow=hidden;connectable=0;fillColor=none;top=0;left=0;bottom=0;right=0;fontStyle=1;" vertex="1" parent="oju-XrPHehOpIFjoWheK-172">
          <mxGeometry width="30" height="30" as="geometry">
            <mxRectangle width="30" height="30" as="alternateBounds" />
          </mxGeometry>
        </mxCell>
        <mxCell id="oju-XrPHehOpIFjoWheK-174" value="RoleID int NOT NULL " style="shape=partialRectangle;overflow=hidden;connectable=0;fillColor=none;top=0;left=0;bottom=0;right=0;align=left;spacingLeft=6;fontStyle=5;" vertex="1" parent="oju-XrPHehOpIFjoWheK-172">
          <mxGeometry x="30" width="220" height="30" as="geometry">
            <mxRectangle width="220" height="30" as="alternateBounds" />
          </mxGeometry>
        </mxCell>
        <mxCell id="oju-XrPHehOpIFjoWheK-175" value="" style="shape=partialRectangle;collapsible=0;dropTarget=0;pointerEvents=0;fillColor=none;points=[[0,0.5],[1,0.5]];portConstraint=eastwest;top=0;left=0;right=0;bottom=0;" vertex="1" parent="oju-XrPHehOpIFjoWheK-168">
          <mxGeometry y="90" width="250" height="30" as="geometry" />
        </mxCell>
        <mxCell id="oju-XrPHehOpIFjoWheK-176" value="" style="shape=partialRectangle;overflow=hidden;connectable=0;fillColor=none;top=0;left=0;bottom=0;right=0;" vertex="1" parent="oju-XrPHehOpIFjoWheK-175">
          <mxGeometry width="30" height="30" as="geometry">
            <mxRectangle width="30" height="30" as="alternateBounds" />
          </mxGeometry>
        </mxCell>
        <mxCell id="oju-XrPHehOpIFjoWheK-177" value="UserName varchar(50)" style="shape=partialRectangle;overflow=hidden;connectable=0;fillColor=none;top=0;left=0;bottom=0;right=0;align=left;spacingLeft=6;" vertex="1" parent="oju-XrPHehOpIFjoWheK-175">
          <mxGeometry x="30" width="220" height="30" as="geometry">
            <mxRectangle width="220" height="30" as="alternateBounds" />
          </mxGeometry>
        </mxCell>
        <mxCell id="oju-XrPHehOpIFjoWheK-178" style="shape=partialRectangle;collapsible=0;dropTarget=0;pointerEvents=0;fillColor=none;points=[[0,0.5],[1,0.5]];portConstraint=eastwest;top=0;left=0;right=0;bottom=0;" vertex="1" parent="oju-XrPHehOpIFjoWheK-168">
          <mxGeometry y="120" width="250" height="30" as="geometry" />
        </mxCell>
        <mxCell id="oju-XrPHehOpIFjoWheK-179" style="shape=partialRectangle;overflow=hidden;connectable=0;fillColor=none;top=0;left=0;bottom=0;right=0;" vertex="1" parent="oju-XrPHehOpIFjoWheK-178">
          <mxGeometry width="30" height="30" as="geometry">
            <mxRectangle width="30" height="30" as="alternateBounds" />
          </mxGeometry>
        </mxCell>
        <mxCell id="oju-XrPHehOpIFjoWheK-180" value="Password varchar(50)" style="shape=partialRectangle;overflow=hidden;connectable=0;fillColor=none;top=0;left=0;bottom=0;right=0;align=left;spacingLeft=6;" vertex="1" parent="oju-XrPHehOpIFjoWheK-178">
          <mxGeometry x="30" width="220" height="30" as="geometry">
            <mxRectangle width="220" height="30" as="alternateBounds" />
          </mxGeometry>
        </mxCell>
        <mxCell id="oju-XrPHehOpIFjoWheK-181" style="shape=partialRectangle;collapsible=0;dropTarget=0;pointerEvents=0;fillColor=none;points=[[0,0.5],[1,0.5]];portConstraint=eastwest;top=0;left=0;right=0;bottom=0;" vertex="1" parent="oju-XrPHehOpIFjoWheK-168">
          <mxGeometry y="150" width="250" height="30" as="geometry" />
        </mxCell>
        <mxCell id="oju-XrPHehOpIFjoWheK-182" style="shape=partialRectangle;overflow=hidden;connectable=0;fillColor=none;top=0;left=0;bottom=0;right=0;" vertex="1" parent="oju-XrPHehOpIFjoWheK-181">
          <mxGeometry width="30" height="30" as="geometry">
            <mxRectangle width="30" height="30" as="alternateBounds" />
          </mxGeometry>
        </mxCell>
        <mxCell id="oju-XrPHehOpIFjoWheK-183" value="Email varchar(100)" style="shape=partialRectangle;overflow=hidden;connectable=0;fillColor=none;top=0;left=0;bottom=0;right=0;align=left;spacingLeft=6;" vertex="1" parent="oju-XrPHehOpIFjoWheK-181">
          <mxGeometry x="30" width="220" height="30" as="geometry">
            <mxRectangle width="220" height="30" as="alternateBounds" />
          </mxGeometry>
        </mxCell>
        <mxCell id="oju-XrPHehOpIFjoWheK-184" style="shape=partialRectangle;collapsible=0;dropTarget=0;pointerEvents=0;fillColor=none;points=[[0,0.5],[1,0.5]];portConstraint=eastwest;top=0;left=0;right=0;bottom=0;" vertex="1" parent="oju-XrPHehOpIFjoWheK-168">
          <mxGeometry y="180" width="250" height="30" as="geometry" />
        </mxCell>
        <mxCell id="oju-XrPHehOpIFjoWheK-185" style="shape=partialRectangle;overflow=hidden;connectable=0;fillColor=none;top=0;left=0;bottom=0;right=0;" vertex="1" parent="oju-XrPHehOpIFjoWheK-184">
          <mxGeometry width="30" height="30" as="geometry">
            <mxRectangle width="30" height="30" as="alternateBounds" />
          </mxGeometry>
        </mxCell>
        <mxCell id="oju-XrPHehOpIFjoWheK-186" value="Phone char(10)" style="shape=partialRectangle;overflow=hidden;connectable=0;fillColor=none;top=0;left=0;bottom=0;right=0;align=left;spacingLeft=6;" vertex="1" parent="oju-XrPHehOpIFjoWheK-184">
          <mxGeometry x="30" width="220" height="30" as="geometry">
            <mxRectangle width="220" height="30" as="alternateBounds" />
          </mxGeometry>
        </mxCell>
        <mxCell id="oju-XrPHehOpIFjoWheK-187" style="shape=partialRectangle;collapsible=0;dropTarget=0;pointerEvents=0;fillColor=none;points=[[0,0.5],[1,0.5]];portConstraint=eastwest;top=0;left=0;right=0;bottom=0;" vertex="1" parent="oju-XrPHehOpIFjoWheK-168">
          <mxGeometry y="210" width="250" height="30" as="geometry" />
        </mxCell>
        <mxCell id="oju-XrPHehOpIFjoWheK-188" style="shape=partialRectangle;overflow=hidden;connectable=0;fillColor=none;top=0;left=0;bottom=0;right=0;" vertex="1" parent="oju-XrPHehOpIFjoWheK-187">
          <mxGeometry width="30" height="30" as="geometry">
            <mxRectangle width="30" height="30" as="alternateBounds" />
          </mxGeometry>
        </mxCell>
        <mxCell id="oju-XrPHehOpIFjoWheK-189" value="IsActive int" style="shape=partialRectangle;overflow=hidden;connectable=0;fillColor=none;top=0;left=0;bottom=0;right=0;align=left;spacingLeft=6;" vertex="1" parent="oju-XrPHehOpIFjoWheK-187">
          <mxGeometry x="30" width="220" height="30" as="geometry">
            <mxRectangle width="220" height="30" as="alternateBounds" />
          </mxGeometry>
        </mxCell>
        <mxCell id="oju-XrPHehOpIFjoWheK-190" style="edgeStyle=none;curved=1;rounded=0;orthogonalLoop=1;jettySize=auto;html=1;entryX=0.5;entryY=0;entryDx=0;entryDy=0;fontSize=12;startSize=8;endSize=8;startArrow=ERone;startFill=0;endArrow=ERzeroToMany;endFill=0;" edge="1" parent="1" source="oju-XrPHehOpIFjoWheK-191" target="oju-XrPHehOpIFjoWheK-207">
          <mxGeometry relative="1" as="geometry" />
        </mxCell>
        <mxCell id="oju-XrPHehOpIFjoWheK-191" value="DocumentType" style="shape=table;startSize=30;container=1;collapsible=1;childLayout=tableLayout;fixedRows=1;rowLines=0;fontStyle=1;align=center;resizeLast=1;" vertex="1" parent="1">
          <mxGeometry x="1803" y="4324" width="250" height="190" as="geometry" />
        </mxCell>
        <mxCell id="oju-XrPHehOpIFjoWheK-192" value="" style="shape=partialRectangle;collapsible=0;dropTarget=0;pointerEvents=0;fillColor=none;points=[[0,0.5],[1,0.5]];portConstraint=eastwest;top=0;left=0;right=0;bottom=1;" vertex="1" parent="oju-XrPHehOpIFjoWheK-191">
          <mxGeometry y="30" width="250" height="30" as="geometry" />
        </mxCell>
        <mxCell id="oju-XrPHehOpIFjoWheK-193" value="PK" style="shape=partialRectangle;overflow=hidden;connectable=0;fillColor=none;top=0;left=0;bottom=0;right=0;fontStyle=1;" vertex="1" parent="oju-XrPHehOpIFjoWheK-192">
          <mxGeometry width="30" height="30" as="geometry">
            <mxRectangle width="30" height="30" as="alternateBounds" />
          </mxGeometry>
        </mxCell>
        <mxCell id="oju-XrPHehOpIFjoWheK-194" value="TypeID int NOT NULL" style="shape=partialRectangle;overflow=hidden;connectable=0;fillColor=none;top=0;left=0;bottom=0;right=0;align=left;spacingLeft=6;fontStyle=5;" vertex="1" parent="oju-XrPHehOpIFjoWheK-192">
          <mxGeometry x="30" width="220" height="30" as="geometry">
            <mxRectangle width="220" height="30" as="alternateBounds" />
          </mxGeometry>
        </mxCell>
        <mxCell id="oju-XrPHehOpIFjoWheK-195" value="" style="shape=partialRectangle;collapsible=0;dropTarget=0;pointerEvents=0;fillColor=none;points=[[0,0.5],[1,0.5]];portConstraint=eastwest;top=0;left=0;right=0;bottom=0;" vertex="1" parent="oju-XrPHehOpIFjoWheK-191">
          <mxGeometry y="60" width="250" height="30" as="geometry" />
        </mxCell>
        <mxCell id="oju-XrPHehOpIFjoWheK-196" value="FK1" style="shape=partialRectangle;overflow=hidden;connectable=0;fillColor=none;top=0;left=0;bottom=0;right=0;fontStyle=1;" vertex="1" parent="oju-XrPHehOpIFjoWheK-195">
          <mxGeometry width="30" height="30" as="geometry">
            <mxRectangle width="30" height="30" as="alternateBounds" />
          </mxGeometry>
        </mxCell>
        <mxCell id="oju-XrPHehOpIFjoWheK-197" value="UserID int NOT NULL" style="shape=partialRectangle;overflow=hidden;connectable=0;fillColor=none;top=0;left=0;bottom=0;right=0;align=left;spacingLeft=6;fontStyle=1;" vertex="1" parent="oju-XrPHehOpIFjoWheK-195">
          <mxGeometry x="30" width="220" height="30" as="geometry">
            <mxRectangle width="220" height="30" as="alternateBounds" />
          </mxGeometry>
        </mxCell>
        <mxCell id="oju-XrPHehOpIFjoWheK-198" value="" style="shape=partialRectangle;collapsible=0;dropTarget=0;pointerEvents=0;fillColor=none;points=[[0,0.5],[1,0.5]];portConstraint=eastwest;top=0;left=0;right=0;bottom=0;" vertex="1" parent="oju-XrPHehOpIFjoWheK-191">
          <mxGeometry y="90" width="250" height="30" as="geometry" />
        </mxCell>
        <mxCell id="oju-XrPHehOpIFjoWheK-199" value="" style="shape=partialRectangle;overflow=hidden;connectable=0;fillColor=none;top=0;left=0;bottom=0;right=0;" vertex="1" parent="oju-XrPHehOpIFjoWheK-198">
          <mxGeometry width="30" height="30" as="geometry">
            <mxRectangle width="30" height="30" as="alternateBounds" />
          </mxGeometry>
        </mxCell>
        <mxCell id="oju-XrPHehOpIFjoWheK-200" value="Name nvarchar(50) " style="shape=partialRectangle;overflow=hidden;connectable=0;fillColor=none;top=0;left=0;bottom=0;right=0;align=left;spacingLeft=6;" vertex="1" parent="oju-XrPHehOpIFjoWheK-198">
          <mxGeometry x="30" width="220" height="30" as="geometry">
            <mxRectangle width="220" height="30" as="alternateBounds" />
          </mxGeometry>
        </mxCell>
        <mxCell id="oju-XrPHehOpIFjoWheK-201" value="" style="shape=partialRectangle;collapsible=0;dropTarget=0;pointerEvents=0;fillColor=none;points=[[0,0.5],[1,0.5]];portConstraint=eastwest;top=0;left=0;right=0;bottom=0;" vertex="1" parent="oju-XrPHehOpIFjoWheK-191">
          <mxGeometry y="120" width="250" height="30" as="geometry" />
        </mxCell>
        <mxCell id="oju-XrPHehOpIFjoWheK-202" value="" style="shape=partialRectangle;overflow=hidden;connectable=0;fillColor=none;top=0;left=0;bottom=0;right=0;" vertex="1" parent="oju-XrPHehOpIFjoWheK-201">
          <mxGeometry width="30" height="30" as="geometry">
            <mxRectangle width="30" height="30" as="alternateBounds" />
          </mxGeometry>
        </mxCell>
        <mxCell id="oju-XrPHehOpIFjoWheK-203" value="Note nvarchar(50) " style="shape=partialRectangle;overflow=hidden;connectable=0;fillColor=none;top=0;left=0;bottom=0;right=0;align=left;spacingLeft=6;" vertex="1" parent="oju-XrPHehOpIFjoWheK-201">
          <mxGeometry x="30" width="220" height="30" as="geometry">
            <mxRectangle width="220" height="30" as="alternateBounds" />
          </mxGeometry>
        </mxCell>
        <mxCell id="oju-XrPHehOpIFjoWheK-204" value="" style="shape=partialRectangle;collapsible=0;dropTarget=0;pointerEvents=0;fillColor=none;points=[[0,0.5],[1,0.5]];portConstraint=eastwest;top=0;left=0;right=0;bottom=0;" vertex="1" parent="oju-XrPHehOpIFjoWheK-191">
          <mxGeometry y="150" width="250" height="30" as="geometry" />
        </mxCell>
        <mxCell id="oju-XrPHehOpIFjoWheK-205" value="" style="shape=partialRectangle;overflow=hidden;connectable=0;fillColor=none;top=0;left=0;bottom=0;right=0;" vertex="1" parent="oju-XrPHehOpIFjoWheK-204">
          <mxGeometry width="30" height="30" as="geometry">
            <mxRectangle width="30" height="30" as="alternateBounds" />
          </mxGeometry>
        </mxCell>
        <mxCell id="oju-XrPHehOpIFjoWheK-206" value="CreateDate Datetime" style="shape=partialRectangle;overflow=hidden;connectable=0;fillColor=none;top=0;left=0;bottom=0;right=0;align=left;spacingLeft=6;" vertex="1" parent="oju-XrPHehOpIFjoWheK-204">
          <mxGeometry x="30" width="220" height="30" as="geometry">
            <mxRectangle width="220" height="30" as="alternateBounds" />
          </mxGeometry>
        </mxCell>
        <mxCell id="oju-XrPHehOpIFjoWheK-207" value="Document" style="shape=table;startSize=30;container=1;collapsible=1;childLayout=tableLayout;fixedRows=1;rowLines=0;fontStyle=1;align=center;resizeLast=1;" vertex="1" parent="1">
          <mxGeometry x="1803" y="4627" width="250" height="280" as="geometry" />
        </mxCell>
        <mxCell id="oju-XrPHehOpIFjoWheK-208" value="" style="shape=partialRectangle;collapsible=0;dropTarget=0;pointerEvents=0;fillColor=none;points=[[0,0.5],[1,0.5]];portConstraint=eastwest;top=0;left=0;right=0;bottom=1;" vertex="1" parent="oju-XrPHehOpIFjoWheK-207">
          <mxGeometry y="30" width="250" height="30" as="geometry" />
        </mxCell>
        <mxCell id="oju-XrPHehOpIFjoWheK-209" value="PK" style="shape=partialRectangle;overflow=hidden;connectable=0;fillColor=none;top=0;left=0;bottom=0;right=0;fontStyle=1;" vertex="1" parent="oju-XrPHehOpIFjoWheK-208">
          <mxGeometry width="30" height="30" as="geometry">
            <mxRectangle width="30" height="30" as="alternateBounds" />
          </mxGeometry>
        </mxCell>
        <mxCell id="oju-XrPHehOpIFjoWheK-210" value="DocID int NOT NULL" style="shape=partialRectangle;overflow=hidden;connectable=0;fillColor=none;top=0;left=0;bottom=0;right=0;align=left;spacingLeft=6;fontStyle=5;" vertex="1" parent="oju-XrPHehOpIFjoWheK-208">
          <mxGeometry x="30" width="220" height="30" as="geometry">
            <mxRectangle width="220" height="30" as="alternateBounds" />
          </mxGeometry>
        </mxCell>
        <mxCell id="oju-XrPHehOpIFjoWheK-211" value="" style="shape=partialRectangle;collapsible=0;dropTarget=0;pointerEvents=0;fillColor=none;points=[[0,0.5],[1,0.5]];portConstraint=eastwest;top=0;left=0;right=0;bottom=0;" vertex="1" parent="oju-XrPHehOpIFjoWheK-207">
          <mxGeometry y="60" width="250" height="30" as="geometry" />
        </mxCell>
        <mxCell id="oju-XrPHehOpIFjoWheK-212" value="FK1" style="shape=partialRectangle;overflow=hidden;connectable=0;fillColor=none;top=0;left=0;bottom=0;right=0;fontStyle=1;" vertex="1" parent="oju-XrPHehOpIFjoWheK-211">
          <mxGeometry width="30" height="30" as="geometry">
            <mxRectangle width="30" height="30" as="alternateBounds" />
          </mxGeometry>
        </mxCell>
        <mxCell id="oju-XrPHehOpIFjoWheK-213" value="TypeID int NOT NULL" style="shape=partialRectangle;overflow=hidden;connectable=0;fillColor=none;top=0;left=0;bottom=0;right=0;align=left;spacingLeft=6;fontStyle=1;" vertex="1" parent="oju-XrPHehOpIFjoWheK-211">
          <mxGeometry x="30" width="220" height="30" as="geometry">
            <mxRectangle width="220" height="30" as="alternateBounds" />
          </mxGeometry>
        </mxCell>
        <mxCell id="oju-XrPHehOpIFjoWheK-214" value="" style="shape=partialRectangle;collapsible=0;dropTarget=0;pointerEvents=0;fillColor=none;points=[[0,0.5],[1,0.5]];portConstraint=eastwest;top=0;left=0;right=0;bottom=0;" vertex="1" parent="oju-XrPHehOpIFjoWheK-207">
          <mxGeometry y="90" width="250" height="30" as="geometry" />
        </mxCell>
        <mxCell id="oju-XrPHehOpIFjoWheK-215" value="FK2" style="shape=partialRectangle;overflow=hidden;connectable=0;fillColor=none;top=0;left=0;bottom=0;right=0;fontStyle=1;" vertex="1" parent="oju-XrPHehOpIFjoWheK-214">
          <mxGeometry width="30" height="30" as="geometry">
            <mxRectangle width="30" height="30" as="alternateBounds" />
          </mxGeometry>
        </mxCell>
        <mxCell id="oju-XrPHehOpIFjoWheK-216" value="UserID int NOT NULL" style="shape=partialRectangle;overflow=hidden;connectable=0;fillColor=none;top=0;left=0;bottom=0;right=0;align=left;spacingLeft=6;fontStyle=1;" vertex="1" parent="oju-XrPHehOpIFjoWheK-214">
          <mxGeometry x="30" width="220" height="30" as="geometry">
            <mxRectangle width="220" height="30" as="alternateBounds" />
          </mxGeometry>
        </mxCell>
        <mxCell id="oju-XrPHehOpIFjoWheK-217" value="" style="shape=partialRectangle;collapsible=0;dropTarget=0;pointerEvents=0;fillColor=none;points=[[0,0.5],[1,0.5]];portConstraint=eastwest;top=0;left=0;right=0;bottom=0;" vertex="1" parent="oju-XrPHehOpIFjoWheK-207">
          <mxGeometry y="120" width="250" height="30" as="geometry" />
        </mxCell>
        <mxCell id="oju-XrPHehOpIFjoWheK-218" value="FK3" style="shape=partialRectangle;overflow=hidden;connectable=0;fillColor=none;top=0;left=0;bottom=0;right=0;fontStyle=1;" vertex="1" parent="oju-XrPHehOpIFjoWheK-217">
          <mxGeometry width="30" height="30" as="geometry">
            <mxRectangle width="30" height="30" as="alternateBounds" />
          </mxGeometry>
        </mxCell>
        <mxCell id="oju-XrPHehOpIFjoWheK-219" value="FlightID int NOT NULL" style="shape=partialRectangle;overflow=hidden;connectable=0;fillColor=none;top=0;left=0;bottom=0;right=0;align=left;spacingLeft=6;fontStyle=1;" vertex="1" parent="oju-XrPHehOpIFjoWheK-217">
          <mxGeometry x="30" width="220" height="30" as="geometry">
            <mxRectangle width="220" height="30" as="alternateBounds" />
          </mxGeometry>
        </mxCell>
        <mxCell id="oju-XrPHehOpIFjoWheK-220" value="" style="shape=partialRectangle;collapsible=0;dropTarget=0;pointerEvents=0;fillColor=none;points=[[0,0.5],[1,0.5]];portConstraint=eastwest;top=0;left=0;right=0;bottom=0;" vertex="1" parent="oju-XrPHehOpIFjoWheK-207">
          <mxGeometry y="150" width="250" height="30" as="geometry" />
        </mxCell>
        <mxCell id="oju-XrPHehOpIFjoWheK-221" value="" style="shape=partialRectangle;overflow=hidden;connectable=0;fillColor=none;top=0;left=0;bottom=0;right=0;" vertex="1" parent="oju-XrPHehOpIFjoWheK-220">
          <mxGeometry width="30" height="30" as="geometry">
            <mxRectangle width="30" height="30" as="alternateBounds" />
          </mxGeometry>
        </mxCell>
        <mxCell id="oju-XrPHehOpIFjoWheK-222" value="DocName nvarchar(50) " style="shape=partialRectangle;overflow=hidden;connectable=0;fillColor=none;top=0;left=0;bottom=0;right=0;align=left;spacingLeft=6;" vertex="1" parent="oju-XrPHehOpIFjoWheK-220">
          <mxGeometry x="30" width="220" height="30" as="geometry">
            <mxRectangle width="220" height="30" as="alternateBounds" />
          </mxGeometry>
        </mxCell>
        <mxCell id="oju-XrPHehOpIFjoWheK-223" value="" style="shape=partialRectangle;collapsible=0;dropTarget=0;pointerEvents=0;fillColor=none;points=[[0,0.5],[1,0.5]];portConstraint=eastwest;top=0;left=0;right=0;bottom=0;" vertex="1" parent="oju-XrPHehOpIFjoWheK-207">
          <mxGeometry y="180" width="250" height="30" as="geometry" />
        </mxCell>
        <mxCell id="oju-XrPHehOpIFjoWheK-224" value="" style="shape=partialRectangle;overflow=hidden;connectable=0;fillColor=none;top=0;left=0;bottom=0;right=0;" vertex="1" parent="oju-XrPHehOpIFjoWheK-223">
          <mxGeometry width="30" height="30" as="geometry">
            <mxRectangle width="30" height="30" as="alternateBounds" />
          </mxGeometry>
        </mxCell>
        <mxCell id="oju-XrPHehOpIFjoWheK-225" value="File" style="shape=partialRectangle;overflow=hidden;connectable=0;fillColor=none;top=0;left=0;bottom=0;right=0;align=left;spacingLeft=6;" vertex="1" parent="oju-XrPHehOpIFjoWheK-223">
          <mxGeometry x="30" width="220" height="30" as="geometry">
            <mxRectangle width="220" height="30" as="alternateBounds" />
          </mxGeometry>
        </mxCell>
        <mxCell id="oju-XrPHehOpIFjoWheK-226" value="" style="shape=partialRectangle;collapsible=0;dropTarget=0;pointerEvents=0;fillColor=none;points=[[0,0.5],[1,0.5]];portConstraint=eastwest;top=0;left=0;right=0;bottom=0;" vertex="1" parent="oju-XrPHehOpIFjoWheK-207">
          <mxGeometry y="210" width="250" height="30" as="geometry" />
        </mxCell>
        <mxCell id="oju-XrPHehOpIFjoWheK-227" value="" style="shape=partialRectangle;overflow=hidden;connectable=0;fillColor=none;top=0;left=0;bottom=0;right=0;" vertex="1" parent="oju-XrPHehOpIFjoWheK-226">
          <mxGeometry width="30" height="30" as="geometry">
            <mxRectangle width="30" height="30" as="alternateBounds" />
          </mxGeometry>
        </mxCell>
        <mxCell id="oju-XrPHehOpIFjoWheK-228" value="Version double" style="shape=partialRectangle;overflow=hidden;connectable=0;fillColor=none;top=0;left=0;bottom=0;right=0;align=left;spacingLeft=6;" vertex="1" parent="oju-XrPHehOpIFjoWheK-226">
          <mxGeometry x="30" width="220" height="30" as="geometry">
            <mxRectangle width="220" height="30" as="alternateBounds" />
          </mxGeometry>
        </mxCell>
        <mxCell id="oju-XrPHehOpIFjoWheK-229" value="" style="shape=partialRectangle;collapsible=0;dropTarget=0;pointerEvents=0;fillColor=none;points=[[0,0.5],[1,0.5]];portConstraint=eastwest;top=0;left=0;right=0;bottom=0;" vertex="1" parent="oju-XrPHehOpIFjoWheK-207">
          <mxGeometry y="240" width="250" height="30" as="geometry" />
        </mxCell>
        <mxCell id="oju-XrPHehOpIFjoWheK-230" value="" style="shape=partialRectangle;overflow=hidden;connectable=0;fillColor=none;top=0;left=0;bottom=0;right=0;" vertex="1" parent="oju-XrPHehOpIFjoWheK-229">
          <mxGeometry width="30" height="30" as="geometry">
            <mxRectangle width="30" height="30" as="alternateBounds" />
          </mxGeometry>
        </mxCell>
        <mxCell id="oju-XrPHehOpIFjoWheK-231" value="CreateDate Datetime" style="shape=partialRectangle;overflow=hidden;connectable=0;fillColor=none;top=0;left=0;bottom=0;right=0;align=left;spacingLeft=6;" vertex="1" parent="oju-XrPHehOpIFjoWheK-229">
          <mxGeometry x="30" width="220" height="30" as="geometry">
            <mxRectangle width="220" height="30" as="alternateBounds" />
          </mxGeometry>
        </mxCell>
        <mxCell id="oju-XrPHehOpIFjoWheK-232" value="Read Only&lt;div&gt;Read and modify&lt;/div&gt;&lt;div&gt;No Permission&lt;/div&gt;" style="text;html=1;align=center;verticalAlign=middle;resizable=0;points=[];autosize=1;strokeColor=none;fillColor=none;fontSize=16;" vertex="1" parent="1">
          <mxGeometry x="999" y="4857" width="139" height="70" as="geometry" />
        </mxCell>
        <mxCell id="oju-XrPHehOpIFjoWheK-233" value="Pilot&lt;div&gt;Crew&lt;/div&gt;" style="text;html=1;align=center;verticalAlign=middle;resizable=0;points=[];autosize=1;strokeColor=none;fillColor=none;fontSize=16;" vertex="1" parent="1">
          <mxGeometry x="1071" y="4540" width="55" height="50" as="geometry" />
        </mxCell>
        <mxCell id="oju-XrPHehOpIFjoWheK-234" style="edgeStyle=none;curved=1;rounded=0;orthogonalLoop=1;jettySize=auto;html=1;entryX=0.5;entryY=1;entryDx=0;entryDy=0;fontSize=12;startSize=8;endSize=8;startArrow=ERone;startFill=0;endArrow=ERoneToMany;endFill=0;" edge="1" parent="1" source="oju-XrPHehOpIFjoWheK-235" target="oju-XrPHehOpIFjoWheK-207">
          <mxGeometry relative="1" as="geometry" />
        </mxCell>
        <mxCell id="oju-XrPHehOpIFjoWheK-235" value="Flights" style="shape=table;startSize=30;container=1;collapsible=1;childLayout=tableLayout;fixedRows=1;rowLines=0;fontStyle=1;align=center;resizeLast=1;" vertex="1" parent="1">
          <mxGeometry x="1803" y="4977" width="250" height="130" as="geometry" />
        </mxCell>
        <mxCell id="oju-XrPHehOpIFjoWheK-236" value="" style="shape=partialRectangle;collapsible=0;dropTarget=0;pointerEvents=0;fillColor=none;points=[[0,0.5],[1,0.5]];portConstraint=eastwest;top=0;left=0;right=0;bottom=1;" vertex="1" parent="oju-XrPHehOpIFjoWheK-235">
          <mxGeometry y="30" width="250" height="30" as="geometry" />
        </mxCell>
        <mxCell id="oju-XrPHehOpIFjoWheK-237" value="PK" style="shape=partialRectangle;overflow=hidden;connectable=0;fillColor=none;top=0;left=0;bottom=0;right=0;fontStyle=1;" vertex="1" parent="oju-XrPHehOpIFjoWheK-236">
          <mxGeometry width="30" height="30" as="geometry">
            <mxRectangle width="30" height="30" as="alternateBounds" />
          </mxGeometry>
        </mxCell>
        <mxCell id="oju-XrPHehOpIFjoWheK-238" value="FlightID int NOT NULL" style="shape=partialRectangle;overflow=hidden;connectable=0;fillColor=none;top=0;left=0;bottom=0;right=0;align=left;spacingLeft=6;fontStyle=5;" vertex="1" parent="oju-XrPHehOpIFjoWheK-236">
          <mxGeometry x="30" width="220" height="30" as="geometry">
            <mxRectangle width="220" height="30" as="alternateBounds" />
          </mxGeometry>
        </mxCell>
        <mxCell id="oju-XrPHehOpIFjoWheK-239" value="" style="shape=partialRectangle;collapsible=0;dropTarget=0;pointerEvents=0;fillColor=none;points=[[0,0.5],[1,0.5]];portConstraint=eastwest;top=0;left=0;right=0;bottom=0;" vertex="1" parent="oju-XrPHehOpIFjoWheK-235">
          <mxGeometry y="60" width="250" height="30" as="geometry" />
        </mxCell>
        <mxCell id="oju-XrPHehOpIFjoWheK-240" value="FK1" style="shape=partialRectangle;overflow=hidden;connectable=0;fillColor=none;top=0;left=0;bottom=0;right=0;fontStyle=1;" vertex="1" parent="oju-XrPHehOpIFjoWheK-239">
          <mxGeometry width="30" height="30" as="geometry">
            <mxRectangle width="30" height="30" as="alternateBounds" />
          </mxGeometry>
        </mxCell>
        <mxCell id="oju-XrPHehOpIFjoWheK-241" value="TypeID int NOT NULL" style="shape=partialRectangle;overflow=hidden;connectable=0;fillColor=none;top=0;left=0;bottom=0;right=0;align=left;spacingLeft=6;fontStyle=1;" vertex="1" parent="oju-XrPHehOpIFjoWheK-239">
          <mxGeometry x="30" width="220" height="30" as="geometry">
            <mxRectangle width="220" height="30" as="alternateBounds" />
          </mxGeometry>
        </mxCell>
        <mxCell id="oju-XrPHehOpIFjoWheK-242" value="" style="shape=partialRectangle;collapsible=0;dropTarget=0;pointerEvents=0;fillColor=none;points=[[0,0.5],[1,0.5]];portConstraint=eastwest;top=0;left=0;right=0;bottom=0;" vertex="1" parent="oju-XrPHehOpIFjoWheK-235">
          <mxGeometry y="90" width="250" height="30" as="geometry" />
        </mxCell>
        <mxCell id="oju-XrPHehOpIFjoWheK-243" value="" style="shape=partialRectangle;overflow=hidden;connectable=0;fillColor=none;top=0;left=0;bottom=0;right=0;" vertex="1" parent="oju-XrPHehOpIFjoWheK-242">
          <mxGeometry width="30" height="30" as="geometry">
            <mxRectangle width="30" height="30" as="alternateBounds" />
          </mxGeometry>
        </mxCell>
        <mxCell id="oju-XrPHehOpIFjoWheK-244" value="DocName nvarchar(50) " style="shape=partialRectangle;overflow=hidden;connectable=0;fillColor=none;top=0;left=0;bottom=0;right=0;align=left;spacingLeft=6;" vertex="1" parent="oju-XrPHehOpIFjoWheK-242">
          <mxGeometry x="30" width="220" height="30" as="geometry">
            <mxRectangle width="220" height="30" as="alternateBounds" />
          </mxGeometry>
        </mxCell>
        <mxCell id="oju-XrPHehOpIFjoWheK-245" style="edgeStyle=none;curved=1;rounded=0;orthogonalLoop=1;jettySize=auto;html=1;entryX=0;entryY=0.5;entryDx=0;entryDy=0;fontSize=12;startSize=8;endSize=8;exitX=1;exitY=0.5;exitDx=0;exitDy=0;startArrow=ERone;startFill=0;endArrow=ERzeroToMany;endFill=0;" edge="1" parent="1" source="oju-XrPHehOpIFjoWheK-172" target="oju-XrPHehOpIFjoWheK-208">
          <mxGeometry relative="1" as="geometry" />
        </mxCell>
        <mxCell id="oju-XrPHehOpIFjoWheK-246" style="edgeStyle=orthogonalEdgeStyle;rounded=0;orthogonalLoop=1;jettySize=auto;html=1;entryX=0;entryY=0.5;entryDx=0;entryDy=0;fontSize=12;startSize=8;endSize=8;exitX=0.5;exitY=0;exitDx=0;exitDy=0;startArrow=ERone;startFill=0;endArrow=ERoneToMany;endFill=0;" edge="1" parent="1" source="oju-XrPHehOpIFjoWheK-168" target="oju-XrPHehOpIFjoWheK-201">
          <mxGeometry relative="1" as="geometry">
            <Array as="points">
              <mxPoint x="1509" y="4458" />
            </Array>
          </mxGeometry>
        </mxCell>
      </root>
    </mxGraphModel>
  </diagram>
</mxfile>
